HIERARCHY
ROOT hip
{
  OFFSET -133.499 82.5643 73.7716
  CHANNELS 6 Xposition Yposition Zposition Zrotation Xrotation Yrotation
  JOINT abdomen
  {
    OFFSET 0 20.6881 -0.73152
    CHANNELS 3 Zrotation Xrotation Yrotation
    JOINT chest
    {
      OFFSET 0 11.7043 -0.48768
      CHANNELS 3 Zrotation Xrotation Yrotation
      JOINT neck
      {
        OFFSET 0 22.1894 -2.19456
        CHANNELS 3 Zrotation Xrotation Yrotation
        JOINT head
        {
          OFFSET -0.24384 7.07133 1.2192
          CHANNELS 3 Zrotation Xrotation Yrotation
          JOINT leftEye
          {
            OFFSET 4.14528 8.04674 8.04672
            CHANNELS 3 Zrotation Xrotation Yrotation
            End Site
            {
              OFFSET 1 0 0
            }
          }
          JOINT rightEye
          {
            OFFSET -3.6576 8.04674 8.04672
            CHANNELS 3 Zrotation Xrotation Yrotation
            End Site
            {
              OFFSET 1 0 0
            }
          }
        }
      }
      JOINT rCollar
      {
        OFFSET -2.68224 19.2634 -4.8768
        CHANNELS 3 Zrotation Xrotation Yrotation
        JOINT rShldr
        {
          OFFSET -8.77824 -1.95073 1.46304
          CHANNELS 3 Zrotation Xrotation Yrotation
          JOINT rForeArm
          {
            OFFSET -28.1742 -1.7115 0.48768
            CHANNELS 3 Zrotation Xrotation Yrotation
            JOINT rHand
            {
              OFFSET -22.5879 0.773209 7.07136
              CHANNELS 3 Zrotation Xrotation Yrotation
              JOINT rThumb1
              {
                OFFSET -1.2192 -0.487915 3.41376
                CHANNELS 3 Zrotation Xrotation Yrotation
                JOINT rThumb2
                {
                  OFFSET -3.37035 -0.52449 3.41376
                  CHANNELS 3 Zrotation Xrotation Yrotation
                  End Site
                  {
                    OFFSET -1.78271 -1.18214 1.43049
                  }
                }
              }
              JOINT rIndex1
              {
                OFFSET -7.75947 0.938293 5.60832
                CHANNELS 3 Zrotation Xrotation Yrotation
                JOINT rIndex2
                {
                  OFFSET -2.54057 -0.884171 1.56538
                  CHANNELS 3 Zrotation Xrotation Yrotation
                  End Site
                  {
                    OFFSET -1.62519 -0.234802 1.16502
                  }
                }
              }
              JOINT rMid1
              {
                OFFSET -8.24714 1.18213 3.41376
                CHANNELS 3 Zrotation Xrotation Yrotation
                JOINT rMid2
                {
                  OFFSET -3.10165 -0.590103 1.0647
                  CHANNELS 3 Zrotation Xrotation Yrotation
                  End Site
                  {
                    OFFSET -2.48547 -0.328903 0.83742
                  }
                }
              }
              JOINT rRing1
              {
                OFFSET -8.82822 0.546677 1.51678
                CHANNELS 3 Zrotation Xrotation Yrotation
                JOINT rRing2
                {
                  OFFSET -2.60934 -0.819778 -0.0198488
                  CHANNELS 3 Zrotation Xrotation Yrotation
                  End Site
                  {
                    OFFSET -2.33842 -0.294052 0.168128
                  }
                }
              }
              JOINT rPinky1
              {
                OFFSET -8.27202 -0.0477905 -0.4584
                CHANNELS 3 Zrotation Xrotation Yrotation
                JOINT rPinky2
                {
                  OFFSET -1.82734 -0.647385 -0.700984
                  CHANNELS 3 Zrotation Xrotation Yrotation
                  End Site
                  {
                    OFFSET -1.69225 -0.51767 -0.607171
                  }
                }
              }
            }
          }
        }
      }
      JOINT lCollar
      {
        OFFSET 2.68224 19.2634 -4.8768
        CHANNELS 3 Zrotation Xrotation Yrotation
        JOINT lShldr
        {
          OFFSET 8.77824 -1.95073 1.46304
          CHANNELS 3 Zrotation Xrotation Yrotation
          JOINT lForeArm
          {
            OFFSET 28.1742 -1.7115 0.48768
            CHANNELS 3 Zrotation Xrotation Yrotation
            JOINT lHand
            {
              OFFSET 22.5879 0.773209 7.07136
              CHANNELS 3 Zrotation Xrotation Yrotation
              JOINT lThumb1
              {
                OFFSET 1.2192 -0.487915 3.41376
                CHANNELS 3 Zrotation Xrotation Yrotation
                JOINT lThumb2
                {
                  OFFSET 3.37035 -0.52449 3.41376
                  CHANNELS 3 Zrotation Xrotation Yrotation
                  End Site
                  {
                    OFFSET 1.78271 -1.18214 1.43049
                  }
                }
              }
              JOINT lIndex1
              {
                OFFSET 7.75947 0.938293 5.60832
                CHANNELS 3 Zrotation Xrotation Yrotation
                JOINT lIndex2
                {
                  OFFSET 2.54057 -0.884171 1.56538
                  CHANNELS 3 Zrotation Xrotation Yrotation
                  End Site
                  {
                    OFFSET 1.62519 -0.234802 1.16502
                  }
                }
              }
              JOINT lMid1
              {
                OFFSET 8.24714 1.18213 3.41376
                CHANNELS 3 Zrotation Xrotation Yrotation
                JOINT lMid2
                {
                  OFFSET 3.10165 -0.590103 1.0647
                  CHANNELS 3 Zrotation Xrotation Yrotation
                  End Site
                  {
                    OFFSET 2.48547 -0.328903 0.83742
                  }
                }
              }
              JOINT lRing1
              {
                OFFSET 8.82822 0.546677 1.51678
                CHANNELS 3 Zrotation Xrotation Yrotation
                JOINT lRing2
                {
                  OFFSET 2.60934 -0.819778 -0.0198488
                  CHANNELS 3 Zrotation Xrotation Yrotation
                  End Site
                  {
                    OFFSET 2.33842 -0.294052 0.168128
                  }
                }
              }
              JOINT lPinky1
              {
                OFFSET 8.27202 -0.0477905 -0.4584
                CHANNELS 3 Zrotation Xrotation Yrotation
                JOINT lPinky2
                {
                  OFFSET 1.82734 -0.647385 -0.700984
                  CHANNELS 3 Zrotation Xrotation Yrotation
                  End Site
                  {
                    OFFSET 1.69225 -0.51767 -0.607171
                  }
                }
              }
            }
          }
        }
      }
    }
  }
  JOINT rButtock
  {
    OFFSET -8.77824 4.35084 1.2192
    CHANNELS 3 Zrotation Xrotation Yrotation
    JOINT rThigh
    {
      OFFSET 0 -1.70687 -2.19456
      CHANNELS 3 Zrotation Xrotation Yrotation
      JOINT rShin
      {
        OFFSET 0 -36.8199 0.73152
        CHANNELS 3 Zrotation Xrotation Yrotation
        JOINT rFoot
        {
          OFFSET 0.73152 -45.1104 -5.12064
          CHANNELS 3 Zrotation Xrotation Yrotation
          End Site
          {
            OFFSET -1.1221 -3.69964 12.103
          }
        }
      }
    }
  }
  JOINT lButtock
  {
    OFFSET 8.77824 4.35084 1.2192
    CHANNELS 3 Zrotation Xrotation Yrotation
    JOINT lThigh
    {
      OFFSET 0 -1.70687 -2.19456
      CHANNELS 3 Zrotation Xrotation Yrotation
      JOINT lShin
      {
        OFFSET 0 -36.8199 0.73152
        CHANNELS 3 Zrotation Xrotation Yrotation
        JOINT lFoot
        {
          OFFSET -0.73152 -45.1104 -5.12064
          CHANNELS 3 Zrotation Xrotation Yrotation
          End Site
          {
            OFFSET 1.1221 -3.69964 12.103
          }
        }
      }
    }
  }
}
MOTION
Frames:	4
Frame Time:	0.00833333
53.0304 82.7473 40.3651 2.24461 2.10537 -61.0515 4.91244 5.10257 3.99093 1.88544 -3.56928 1.40677 -11.8828 1.63383 -4.85168 12.2654 4.32863 -7.52636 -0 0 0 -0 0 0 8.11918e-014 1.79692e-013 -2.38393e-013 78.6676 21.8167 7.76801 -14.552 -7.40866 26.6715 -0.0407477 5.75178 0.811114 -1.33564e-009 9.61348e-010 4.15479e-010 -2.30833e-009 1.66815e-009 7.28304e-010 -1.33564e-009 9.61346e-010 4.15476e-010 7.73091 5.47488 0.417314 -1.33564e-009 9.61345e-010 4.15466e-010 2.90554 0.965183 0.102902 -1.33564e-009 9.61342e-010 4.15477e-010 10.2786 0.731801 0.0259123 -1.33565e-009 9.61343e-010 4.15489e-010 2.22167 -0.733487 -0.20892 8.10217e-014 1.7971e-013 -2.38641e-013 -85.3539 7.80998 2.06856 11.0683 -4.81632 -19.8206 0.131571 10.2869 -1.46162 -1.22282e-009 1.17348e-009 -3.22006e-010 -2.11751e-009 2.0546e-009 -5.40406e-010 -1.22282e-009 1.17349e-009 -3.21996e-010 -7.73091 5.47488 -0.417314 -1.22281e-009 1.17348e-009 -3.22009e-010 -2.90554 0.965183 -0.102902 -1.22282e-009 1.17348e-009 -3.22004e-010 -10.2786 0.731801 -0.0259123 -1.22281e-009 1.17348e-009 -3.22015e-010 -2.22167 -0.733487 0.20892 -2.03217e-016 0 -3.88251e-019 15.7033 -9.3672 4.54514 0.00960338 22.0385 0.245791 -1.79101 -8.85597 -6.20027 2.03217e-016 0 3.88251e-019 8.78077 -27.8495 1.75514 1.21241 61.832 -1.59796 0.689825 0.824161 2.73218 
52.6076 82.7603 40.791 2.17848 2.3049 -62.2162 5.23563 5.17706 4.0276 1.73209 -3.59509 1.41139 -11.6993 1.50697 -4.83515 11.9648 4.20471 -7.49336 -0 0 0 -0 0 0 3.74597e-014 -3.16653e-014 -7.68345e-014 78.6418 22.3707 7.89993 -14.7285 -7.5583 27.0302 -0.0377814 5.51447 0.777472 -1.55109e-009 1.11154e-009 6.02513e-010 -2.67988e-009 1.92766e-009 1.05248e-009 -1.55109e-009 1.11154e-009 6.02511e-010 7.73091 5.47488 0.417314 -1.55109e-009 1.11154e-009 6.02503e-010 2.90554 0.965183 0.102902 -1.55108e-009 1.11154e-009 6.02511e-010 10.2786 0.731801 0.0259123 -1.5511e-009 1.11154e-009 6.02522e-010 2.22167 -0.733487 -0.20892 3.72811e-014 -3.16517e-014 -7.70958e-014 -85.1472 8.29131 1.93361 11.0224 -4.78621 -19.7332 0.133336 10.3545 -1.47145 -1.38455e-009 2.32491e-009 -1.03569e-010 -2.39479e-009 4.04816e-009 -1.61213e-010 -1.38456e-009 2.32492e-009 -1.03559e-010 -7.73091 5.47488 -0.417314 -1.38455e-009 2.32491e-009 -1.0357e-010 -2.90554 0.965183 -0.102902 -1.38456e-009 2.32491e-009 -1.03568e-010 -10.2786 0.731801 -0.0259123 -1.38455e-009 2.32491e-009 -1.03579e-010 -2.22167 -0.733487 0.20892 -2.03217e-016 0 -3.88251e-019 15.8346 -8.77643 5.08385 0.0124234 21.9139 0.273452 -1.71786 -9.20499 -5.66498 2.03217e-016 0 3.88251e-019 9.04604 -28.3911 1.40485 1.1707 61.2955 -1.56983 0.753095 -0.129229 2.86121 
52.0555 82.7383 41.0941 2.11859 2.5711 -63.3309 5.6426 5.23437 4.02568 1.55906 -3.63636 1.40496 -11.3191 1.43087 -4.84485 11.37 3.88238 -7.5341 -0 0 0 -0 0 0 -3.46371e-014 -3.5087e-013 2.44098e-013 78.615 22.9375 7.97872 -14.9219 -7.72375 27.4265 -0.0359758 5.37498 0.757693 -1.96784e-009 1.44149e-009 7.05343e-010 -3.39963e-009 2.49808e-009 1.23222e-009 -1.96783e-009 1.44149e-009 7.0534e-010 7.73091 5.47488 0.417314 -1.96784e-009 1.44148e-009 7.05337e-010 2.90554 0.965183 0.102902 -1.96783e-009 1.44148e-009 7.05341e-010 10.2786 0.731801 0.0259123 -1.96784e-009 1.44148e-009 7.05348e-010 2.22167 -0.733487 -0.20892 -3.48156e-014 -3.50866e-013 2.43834e-013 -84.9336 8.63416 1.78758 10.9799 -4.75848 -19.6523 0.139225 10.5805 -1.50428 -1.7959e-009 4.14063e-009 4.17758e-010 -3.10021e-009 7.19331e-009 7.4379e-010 -1.79591e-009 4.14063e-009 4.17768e-010 -7.73091 5.47488 -0.417314 -1.7959e-009 4.14063e-009 4.17759e-010 -2.90554 0.965183 -0.102902 -1.79591e-009 4.14063e-009 4.17759e-010 -10.2786 0.731801 -0.0259123 -1.7959e-009 4.14063e-009 4.17747e-010 -2.22167 -0.733487 0.20892 -2.03217e-016 0 -3.88251e-019 16.0059 -8.14832 5.72013 0.0154889 21.6747 0.300451 -1.63352 -9.62402 -5.0857 2.03217e-016 0 3.88251e-019 9.37335 -28.9675 1.05436 1.12563 60.692 -1.53939 0.805225 -1.1175 2.86418 
51.549 82.696 41.3504 2.12255 2.77453 -64.3857 5.96423 5.25764 3.98854 1.42011 -3.68536 1.3878 -10.8984 1.38351 -4.85874 10.7086 3.49466 -7.58848 -0 0 0 -0 0 0 -1.02485e-013 -6.46064e-013 5.67111e-013 78.5819 23.5312 8.03197 -15.1201 -7.89517 27.8355 -0.0341806 5.25084 0.740074 -2.36733e-009 1.75079e-009 7.4579e-010 -4.08972e-009 3.03273e-009 1.30401e-009 -2.36732e-009 1.75079e-009 7.45785e-010 7.73091 5.47488 0.417314 -2.36732e-009 1.75079e-009 7.45787e-010 2.90554 0.965183 0.102902 -2.36732e-009 1.75079e-009 7.45787e-010 10.2786 0.731801 0.0259123 -2.36733e-009 1.75079e-009 7.45792e-010 2.22167 -0.733487 -0.20892 -1.02663e-013 -6.46071e-013 5.66852e-013 -84.7229 8.86425 1.64128 10.9454 -4.73604 -19.5867 0.146975 10.8662 -1.54589 -2.19528e-009 5.74634e-009 8.87062e-010 -3.78539e-009 9.97475e-009 1.55864e-009 -2.19529e-009 5.74634e-009 8.87072e-010 -7.73091 5.47488 -0.417314 -2.19528e-009 5.74634e-009 8.87066e-010 -2.90554 0.965183 -0.102902 -2.19529e-009 5.74634e-009 8.87063e-010 -10.2786 0.731801 -0.0259123 -2.19528e-009 5.74634e-009 8.87052e-010 -2.22167 -0.733487 0.20892 -2.03217e-016 0 -3.88251e-019 16.0897 -7.56533 6.27667 0.0185475 21.4278 0.326962 -1.55238 -10.0493 -4.5543 2.03217e-016 0 3.88251e-019 9.63165 -29.5604 0.719739 1.07551 59.9808 -1.50302 0.842107 -2.04464 2.78288 
